<!-- Generated by IcoMoon.io -->
<svg version="1.1" xmlns="http://www.w3.org/2000/svg" width="34" height="32" viewBox="0 0 34 32">
<title>astronaut</title>
<path fill="#2196f3" d="M31.975 4.279c-0.060-0.181-0.215-0.314-0.404-0.343l-0.003-0-1.808-0.263-0.809-1.638c-0.169-0.345-0.735-0.345-0.904 0l-0.809 1.638-1.808 0.263c-0.246 0.037-0.432 0.246-0.432 0.499 0 0.141 0.058 0.269 0.152 0.361l1.309 1.275-0.309 1.8c-0.032 0.189 0.045 0.381 0.2 0.494 0.157 0.114 0.362 0.128 0.532 0.038l1.616-0.85 1.616 0.85c0.068 0.036 0.149 0.058 0.234 0.058 0.279 0 0.505-0.226 0.505-0.505 0-0.030-0.003-0.059-0.008-0.087l0 0.003-0.309-1.8 1.308-1.275c0.094-0.092 0.152-0.22 0.152-0.362 0-0.056-0.009-0.109-0.026-0.159l0.001 0.004zM29.646 5.535c-0.119 0.115-0.173 0.283-0.145 0.447l0.18 1.054-0.946-0.497c-0.068-0.037-0.149-0.058-0.235-0.058s-0.167 0.022-0.238 0.060l0.003-0.001-0.946 0.497 0.18-1.054c0.005-0.026 0.007-0.055 0.007-0.086 0-0.141-0.058-0.269-0.152-0.361l-0-0-0.767-0.747 1.059-0.154c0.164-0.024 0.306-0.127 0.38-0.276l0.473-0.958 0.473 0.958c0.073 0.149 0.215 0.253 0.38 0.276l1.059 0.154-0.765 0.747zM26.451 19.413h-1.009v1.009h1.009v-1.009zM26.451 21.431h-1.009v1.008h1.009v-1.008zM27.459 20.422h-1.009v1.009h1.009v-1.009zM25.442 20.422h-1.009v1.009h1.009v-1.009zM22.919 24.963h-1.009v1.009h1.009v-1.009zM22.919 26.981h-1.009v1.009h1.009v-1.009zM23.928 25.972h-1.009v1.009h1.009v-1.009zM21.91 25.972h-1.009v1.009h1.009v-1.009zM16.865 22.945h-1.009v1.009h1.009v-1.009zM16.865 24.963h-1.009v1.009h1.009v-1.009zM17.874 23.953h-1.009v1.009h1.009v-1.009zM15.856 23.953h-1.009v1.009h1.009v-1.009zM7.279 5.791h-1.009v1.009h1.009v-1.009zM7.279 7.809h-1.009v1.009h1.009v-1.008zM8.288 6.8h-1.009v1.009h1.009v-1.009zM6.27 6.8h-1.009v1.009h1.009v-1.009z"></path>
<path fill="#212121" d="M25.108 13.394c-0.265-0.356-0.661-0.602-1.115-0.665l-0.009-0.001c-0.072-0.011-0.155-0.017-0.24-0.017-0.388 0-0.746 0.132-1.031 0.353l0.004-0.003-1.185 0.908-1.795 1.341-1.284-0.512c2.29-1.027 3.891-3.319 3.891-5.978 0-3.616-2.953-6.559-6.585-6.559s-6.585 2.942-6.585 6.559c0 1.311 0.392 2.53 1.059 3.555l-2.619-0.023c-0.008 0-0.015 0.004-0.022 0.004-0.053 0.003-0.104 0.013-0.15 0.031l0.003-0.001c-0.012 0.004-0.025 0.007-0.036 0.013-0.006 0.003-0.012 0.003-0.018 0.006l-3.058 1.51c-0.001 0-0.001 0-0.001 0.001l-1.791 0.861c-0.023 0.010-0.043 0.021-0.061 0.034l0.001-0.001c-0.456 0.306-0.752 0.82-0.752 1.403 0 0.281 0.069 0.546 0.19 0.778l-0.004-0.009c0.208 0.401 0.56 0.702 0.987 0.837l0.012 0.003c0.152 0.050 0.327 0.079 0.508 0.079 0.291 0 0.566-0.074 0.805-0.205l-0.009 0.004 1.313-0.698 2.141-1.106 1.283-0.007-5.147 5.123c0 0.001-0.001 0.001-0.001 0.001l-1.266 1.261c-0.287 0.283-0.464 0.676-0.464 1.11 0 0.002 0 0.003 0 0.005v-0c0 0.42 0.164 0.816 0.464 1.115 0.285 0.284 0.678 0.459 1.113 0.459 0.001 0 0.002 0 0.003 0h-0c0.405 0 0.808-0.154 1.117-0.459l1.243-1.238 1.647-1.229 0.852 0.848-2.934 2.921c-0.287 0.283-0.464 0.676-0.464 1.11 0 0.001 0 0.003 0 0.004v-0c0 0.421 0.164 0.817 0.464 1.115 0.285 0.284 0.678 0.459 1.113 0.459 0.001 0 0.002 0 0.003 0h-0c0.404 0 0.809-0.153 1.117-0.459l4.246-4.23c0.007-0.006 0.015-0.008 0.021-0.015l4.886-5.352 3.283 0.467c0.024 0.003 0.048 0.005 0.071 0.005 0.061 0 0.12-0.015 0.177-0.036 0.016-0.006 0.031-0.014 0.047-0.022 0.018-0.009 0.037-0.014 0.055-0.026l3.040-2.018c0.011-0.008 0.017-0.020 0.028-0.028 0.012-0.009 0.027-0.013 0.038-0.024l1.202-1.127c0.329-0.308 0.534-0.745 0.534-1.229 0-0.378-0.125-0.728-0.336-1.009l0.003 0.004zM3.745 16.809c-0.093 0.051-0.203 0.081-0.321 0.081-0.074 0-0.145-0.012-0.212-0.034l0.005 0.001c-0.278-0.088-0.477-0.344-0.477-0.646 0-0.223 0.108-0.42 0.274-0.544l0.002-0.001 1.243-0.598 0.299 0.874 0.125 0.368-0.938 0.499zM7.053 15.081l-1.465 0.757-0.241-0.706-0.174-0.508 1.917-0.947-0.038 1.404zM21.336 8.818c0 0.869-0.208 1.688-0.567 2.421l-3.955-1.797c-0.041-0.544-0.324-1.014-0.74-1.309l-0.006-0.004 1.385-4.598c2.249 0.716 3.882 2.814 3.882 5.286zM10.185 8.818c0-3.060 2.501-5.55 5.576-5.55 0.239 0 0.473 0.020 0.705 0.050l-1.355 4.496c-0.018 0-0.035-0.006-0.054-0.006-0 0-0.001 0-0.001 0-0.976 0-1.768 0.79-1.77 1.766v0c0.003 0.976 0.795 1.766 1.771 1.766 0 0 0 0 0 0h-0c0.657 0 1.225-0.362 1.531-0.893l3.654 1.66c-1.017 1.369-2.644 2.261-4.481 2.261-3.075 0-5.576-2.489-5.576-5.549zM15.819 9.575c0 0.417-0.342 0.757-0.763 0.757-0 0-0.001 0-0.001 0-0.419 0-0.758-0.338-0.761-0.757v-0c0-0.417 0.342-0.757 0.762-0.757s0.762 0.339 0.762 0.757zM4.061 23.787c-0.104 0.103-0.247 0.167-0.405 0.167s-0.3-0.063-0.404-0.166l0 0c-0.103-0.102-0.167-0.243-0.167-0.399s0.064-0.297 0.166-0.399l0-0 0.91-0.907 0.805 0.802-0.907 0.903zM7.101 27.319c-0.104 0.103-0.247 0.167-0.405 0.167s-0.3-0.063-0.404-0.166l0 0c-0.103-0.102-0.167-0.243-0.167-0.399s0.064-0.297 0.167-0.399l0-0 0.911-0.907 0.806 0.802-0.908 0.904zM10.394 24.037l-0.001 0.001-1.669 1.665-0.806-0.802 1.67-1.662c0.038-0.038 0.061-0.083 0.085-0.128 0.007-0.013 0.019-0.024 0.025-0.038 0.016-0.039 0.018-0.081 0.024-0.122 0.003-0.023 0.013-0.045 0.013-0.069 0-0.033-0.012-0.066-0.019-0.099-0.006-0.030-0.006-0.061-0.018-0.090-0.023-0.050-0.052-0.093-0.087-0.131l0 0c-0.009-0.011-0.013-0.025-0.023-0.036h-0.001s0-0.001-0.001-0.002l-1.52-1.514c-0.016-0.016-0.037-0.023-0.055-0.036-0.024-0.020-0.051-0.038-0.080-0.053l-0.003-0.001c-0.025-0.012-0.054-0.022-0.085-0.030l-0.003-0.001c-0.028-0.009-0.062-0.016-0.096-0.019l-0.002-0c-0.006-0-0.014-0-0.021-0-0.024 0-0.048 0.002-0.071 0.005l0.003-0c-0.034 0.004-0.066 0.009-0.099 0.019-0.032 0.010-0.060 0.026-0.089 0.042-0.019 0.010-0.040 0.014-0.058 0.027l-1.678 1.252-0.852-0.849 2.269-2.257 4.125 4.057-0.877 0.869zM16.845 17.4c-0.015-0.002-0.029 0.003-0.043 0.003-0.008-0-0.016-0.001-0.025-0.001-0.030 0-0.059 0.003-0.087 0.008l0.003-0c-0.066 0.011-0.125 0.033-0.177 0.066l0.002-0.001c-0.028 0.017-0.054 0.035-0.078 0.058-0.012 0.010-0.027 0.016-0.038 0.028l-4.444 4.867-4.094-4.026 2.68-2.666c0.091-0.091 0.148-0.217 0.148-0.357 0-0.279-0.226-0.505-0.505-0.505-0.001 0-0.001 0-0.002 0h0l-2.099 0.012 0.026-1.52 2.936 0.025c1.195 1.227 2.863 1.987 4.709 1.987 0.001 0 0.002 0 0.003 0h-0c0.414 0 0.817-0.043 1.21-0.116 0.038 0.030 0.075 0.061 0.122 0.080l2.28 0.908 0.144 0.717 0.169 0.838-2.841-0.404zM20.668 17.568l-0.296-1.474 1.368-1.022 0.895 1.189-1.968 1.307zM24.218 14.89l-0.792 0.742-0.881-1.169 0.786-0.603c0.147-0.113 0.332-0.159 0.514-0.135 0.183 0.026 0.344 0.121 0.454 0.269 0.083 0.111 0.133 0.251 0.133 0.403 0 0.194-0.082 0.37-0.214 0.493l-0 0z"></path>
<path fill="#212121" d="M14.597 17.542l-2.027-2.018c-0.091-0.091-0.217-0.147-0.356-0.147s-0.265 0.056-0.356 0.147l-2.027 2.018c-0.091 0.092-0.148 0.218-0.148 0.358s0.056 0.266 0.148 0.358l-0-0 2.026 2.018c0.091 0.091 0.217 0.147 0.356 0.147s0.265-0.056 0.356-0.147v0l2.027-2.018c0.092-0.091 0.149-0.218 0.149-0.358s-0.057-0.266-0.149-0.358l-0-0zM12.214 19.206l-1.312-1.306 1.312-1.306 1.312 1.306-1.312 1.306zM17.966 4.797l-0.244 0.98c0.067 0.017 1.644 0.427 1.644 2.032h1.009c0-1.908-1.576-2.805-2.409-3.012zM20.375 8.818h-1.009v1.009h1.009v-1.009z"></path>
</svg>
